<?xml version="1.0" standalone="no"?>
<!DOCTYPE svg PUBLIC "-//W3C//DTD SVG 20010904//EN"
 "http://www.w3.org/TR/2001/REC-SVG-20010904/DTD/svg10.dtd">
<svg version="1.0" xmlns="http://www.w3.org/2000/svg"
 width="512.000000pt" height="512.000000pt" viewBox="0 0 512.000000 512.000000"
 preserveAspectRatio="xMidYMid meet">
<metadata>
Created by potrace 1.16, written by Peter Selinger 2001-2019
</metadata>
<g transform="translate(0.000000,512.000000) scale(0.100000,-0.100000)"
fill="#000000" stroke="none">
<path d="M2442 4448 c-20 -27 -23 -58 -7 -91 11 -23 15 -54 13 -93 -3 -53 -6
-60 -34 -76 -19 -11 -85 -26 -160 -37 -71 -11 -149 -26 -174 -35 -34 -12 -46
-12 -52 -3 -8 12 -63 168 -95 266 -17 51 -43 81 -43 49 0 -8 27 -86 60 -173
33 -87 60 -166 60 -176 0 -35 -55 -112 -123 -172 -39 -34 -88 -79 -108 -99
-95 -95 -98 -317 -5 -407 26 -25 35 -44 40 -82 7 -48 9 -51 93 -114 l86 -65
-69 0 c-66 0 -209 -13 -303 -26 -27 -4 -54 -16 -68 -30 l-23 -23 -43 19 c-68
30 -227 70 -279 70 -50 0 -119 -25 -168 -61 -36 -28 -103 -121 -130 -183 -49
-116 -61 -286 -25 -357 20 -38 65 -73 130 -100 l56 -23 -3 -90 c-3 -79 -6 -93
-24 -108 -38 -31 -66 -115 -72 -214 -4 -78 -1 -105 21 -180 35 -121 172 -499
192 -530 9 -14 32 -35 51 -46 33 -20 34 -21 18 -39 -16 -18 -16 -25 4 -117 12
-53 25 -125 28 -159 6 -55 4 -63 -10 -63 -66 0 -413 -43 -459 -56 -30 -9 -14
-28 34 -39 l44 -11 -73 -11 c-70 -11 -122 -33 -122 -53 0 -15 52 -46 105 -63
83 -27 260 -64 450 -93 225 -35 481 -39 580 -10 l60 17 55 -24 c97 -43 263
-80 323 -72 53 8 251 68 276 84 11 7 6 34 -28 151 -23 79 -40 145 -38 147 9 9
264 -49 424 -96 197 -57 447 -103 578 -104 81 -2 102 2 205 38 128 44 141 59
88 94 -20 14 -25 20 -13 17 78 -19 151 -27 211 -22 38 4 101 6 141 6 40 -1 74
4 78 9 10 18 -47 33 -100 27 l-50 -5 32 20 c52 33 68 79 66 189 -1 86 -6 108
-52 239 -28 79 -58 155 -67 169 -14 22 -14 25 0 41 9 10 16 25 16 33 0 23
-138 309 -195 403 -100 167 -205 272 -245 247 -13 -8 -26 -7 -53 6 -32 16 -38
26 -72 127 -21 61 -40 115 -42 121 -2 6 19 17 49 25 41 11 54 19 59 39 21 74
-3 218 -51 317 -56 114 -157 202 -232 203 -14 0 -50 -11 -79 -25 -29 -13 -55
-22 -58 -20 -2 3 6 28 19 55 16 34 30 50 42 50 30 0 102 75 139 142 31 59 34
69 33 153 0 50 -2 101 -3 115 -1 14 1 58 5 97 l7 73 -102 109 -102 110 51 89
c38 64 60 91 81 99 40 16 76 90 63 134 -19 67 -82 64 -117 -5 -20 -37 -20 -42
-5 -83 l16 -44 -49 -81 c-27 -45 -51 -84 -54 -86 -8 -8 -116 90 -125 113 -5
12 -29 35 -54 51 -25 16 -45 34 -46 39 0 6 12 53 26 105 17 65 34 104 52 123
34 36 37 97 5 128 -27 27 -58 18 -84 -24 -23 -38 -25 -84 -4 -107 14 -15 13
-26 -10 -106 -15 -49 -28 -90 -30 -92 -2 -2 -47 13 -100 33 -54 20 -144 44
-201 53 l-104 16 0 63 c0 51 4 67 20 80 24 21 26 60 4 91 -17 25 -37 28 -52
10z m48 -52 c0 -6 -4 -17 -9 -25 -8 -12 -12 -12 -25 -2 -19 16 -21 42 -4 59
10 10 15 9 25 -5 7 -9 13 -22 13 -27z m508 -22 c5 -74 -68 -103 -76 -30 -5 38
23 78 51 74 18 -2 23 -11 25 -44z m-51 -136 c-3 -8 -6 -5 -6 6 -1 11 2 17 5
13 3 -3 4 -12 1 -19z m376 -59 c16 -22 11 -57 -14 -97 -17 -27 -20 -27 -48 -1
-26 25 -22 60 11 97 26 27 33 27 51 1z m-404 -43 c-6 -26 -14 -44 -17 -42 -2
3 1 26 8 51 17 59 24 52 9 -9z m-265 8 c70 -18 169 -54 163 -60 -2 -2 -28 3
-58 12 -48 15 -83 19 -244 28 -58 4 -108 17 -98 26 23 23 136 20 237 -6z
m-189 -38 c57 -26 138 -86 240 -176 93 -83 96 -85 215 -126 86 -30 107 -34
128 -24 23 10 24 14 19 63 l-6 52 21 -30 c25 -34 80 -90 186 -187 80 -74 80
-76 56 -178 -12 -51 -12 -70 -3 -92 15 -37 6 -124 -19 -182 -19 -42 -100 -141
-109 -132 -2 2 15 42 38 87 64 128 81 185 73 247 -7 59 -13 64 -93 81 -75 16
-75 7 1 -16 52 -15 64 -23 66 -42 5 -36 -41 -174 -114 -338 -36 -81 -77 -176
-91 -210 -23 -57 -28 -63 -55 -63 l-29 0 26 23 c33 28 67 116 54 139 -5 9 -35
27 -67 39 -114 43 -548 187 -604 199 -51 12 -59 11 -90 -6 -38 -23 -107 -119
-108 -151 0 -18 7 -23 38 -28 87 -15 492 -132 523 -151 4 -2 5 -12 2 -20 -7
-19 -8 -19 -218 46 -88 27 -209 61 -269 76 -101 25 -112 30 -165 79 -31 28
-92 80 -136 115 -72 56 -107 101 -92 117 3 3 26 -3 51 -12 62 -24 105 -14 153
34 54 55 84 114 142 285 54 158 61 207 35 246 -27 40 -107 120 -134 135 -31
16 -81 22 -98 12 -21 -14 -13 7 16 41 22 27 40 35 102 48 103 22 199 32 235
27 17 -3 53 -15 80 -27z m106 -17 c78 -42 129 -87 158 -140 l24 -44 -69 66
c-38 37 -98 85 -133 108 -75 48 -64 54 20 10z m187 -5 c35 -8 68 -12 73 -8 5
3 9 0 9 -5 0 -6 6 -11 14 -11 18 0 105 -48 134 -73 38 -35 70 -177 40 -177 -7
0 -62 17 -121 38 -106 38 -108 39 -144 93 -45 68 -77 104 -128 141 l-40 30 50
-7 c28 -4 79 -13 113 -21z m-607 -140 c43 -41 79 -120 79 -173 0 -54 -67 -261
-106 -326 -34 -60 -78 -95 -116 -95 l-31 0 40 38 c46 42 74 92 98 177 24 79
16 205 -15 270 -31 63 -58 79 -122 72 l-51 -6 19 21 c59 66 149 76 205 22z
m-109 -81 c35 -38 47 -64 59 -129 28 -151 -86 -364 -195 -364 l-29 0 46 41
c69 60 110 149 115 254 5 92 -7 142 -45 193 l-24 32 24 0 c13 0 35 -12 49 -27z
m-66 -24 c68 -63 52 -248 -30 -360 -57 -77 -123 -94 -167 -43 -31 36 -33 48
-5 26 36 -28 64 -28 107 1 123 83 144 345 30 383 -17 5 -28 14 -24 18 12 12
65 -2 89 -25z m1189 -39 c10 -11 16 -20 13 -20 -3 0 -13 9 -23 20 -10 11 -16
20 -13 20 3 0 13 -9 23 -20z m-1292 -12 c9 -7 21 -33 26 -58 14 -65 -3 -136
-44 -177 -39 -39 -58 -41 -90 -8 -21 20 -25 34 -25 80 0 119 73 208 133 163z
m1414 -440 c-3 -8 -6 -5 -6 6 -1 11 2 17 5 13 3 -3 4 -12 1 -19z m-939 -186
c2 -7 -3 -12 -12 -12 -9 0 -16 7 -16 16 0 17 22 14 28 -4z m23 -46 c-20 -19
-23 -20 -48 -6 -14 8 -29 22 -31 30 -4 11 0 11 16 -3 26 -24 54 -19 67 11 8
19 11 20 13 6 2 -9 -6 -26 -17 -38z m429 -85 c120 -42 161 -61 129 -61 -23 0
-459 152 -459 160 0 9 129 -30 330 -99z m-1446 60 c53 -15 105 -36 115 -45 33
-30 71 -184 71 -288 0 -54 0 -54 -79 -33 -30 8 -50 10 -45 6 12 -10 86 -31
113 -31 20 0 21 5 21 93 0 90 -15 170 -39 216 -19 34 -3 40 25 8 35 -41 54
-118 54 -223 0 -119 -7 -157 -29 -149 -9 4 -51 16 -93 27 l-77 21 -90 -95
c-96 -102 -137 -128 -196 -128 -45 0 -133 41 -166 77 l-24 27 29 -22 c86 -65
214 16 278 177 29 73 32 264 6 324 -9 20 -21 37 -26 37 -5 0 0 -19 11 -42 17
-33 21 -60 21 -137 -1 -152 -42 -254 -126 -311 l-33 -23 34 33 c82 81 113 244
64 336 -12 23 -29 44 -38 48 -34 13 -82 5 -120 -20 -39 -25 -39 -24 9 20 27
25 73 55 102 66 32 13 54 29 57 41 7 27 55 25 171 -10z m492 -27 c49 -23 146
-132 246 -275 133 -191 184 -232 318 -254 25 -4 58 -19 74 -32 28 -23 35 -25
105 -18 98 9 166 22 199 37 36 18 72 84 72 133 0 37 -18 123 -35 168 -5 13 -2
17 14 17 17 0 24 -12 41 -68 11 -38 25 -97 29 -133 l8 -64 2 55 c0 30 -6 82
-14 115 -19 78 -19 75 14 75 32 0 45 -22 67 -118 l14 -57 -6 54 c-3 30 -12 70
-19 88 -13 31 -13 34 2 31 30 -5 55 -93 60 -209 3 -59 3 -118 -1 -133 -9 -34
-39 -62 -111 -98 -33 -17 -65 -38 -72 -47 -6 -9 -22 -51 -35 -94 l-23 -78 -50
-15 c-75 -22 -249 -40 -282 -28 -18 6 -43 33 -70 73 -33 51 -134 165 -110 125
3 -6 -38 4 -91 22 l-97 32 -35 -39 c-20 -21 -40 -39 -46 -39 -6 0 -33 23 -59
51 l-47 51 -47 -45 c-97 -94 -160 -91 -92 4 30 41 64 132 77 202 l6 38 97 -93
c72 -71 108 -98 146 -111 28 -10 78 -29 113 -42 34 -13 60 -20 57 -15 -2 4
-51 25 -107 46 -99 37 -107 43 -200 133 -91 87 -98 97 -98 133 0 62 -29 187
-60 254 -34 75 -92 141 -145 165 l-40 19 98 0 c71 0 109 -5 133 -16z m-243
-29 c-3 -9 -8 -14 -10 -11 -3 3 -2 9 2 15 9 16 15 13 8 -4z m85 -9 c35 -18 85
-88 113 -157 46 -115 34 -320 -25 -438 -26 -50 -77 -101 -102 -101 -20 0 -67
25 -83 43 -10 13 -6 14 28 10 58 -8 103 23 138 95 26 53 28 65 27 177 -1 96
-5 132 -22 179 -24 66 -63 122 -89 130 -10 3 -37 10 -60 16 -62 16 -55 33 10
26 49 -5 50 -5 17 6 -34 11 -35 11 -10 18 14 5 26 8 28 9 2 1 15 -5 30 -13z
m1052 -41 c233 -78 258 -81 261 -30 1 16 2 16 6 3 7 -29 -15 -58 -46 -58 -25
0 -348 104 -360 116 -14 13 48 0 139 -31z m-1609 -67 c16 -31 14 -118 -5 -163
-47 -111 -143 -168 -192 -114 -15 16 -19 35 -18 83 2 100 46 175 126 214 45
23 69 18 89 -20z m2149 35 c0 -5 12 -9 26 -10 65 -3 182 -178 205 -306 14 -78
8 -157 -12 -170 -29 -18 -63 1 -155 87 -83 78 -94 92 -124 165 -18 45 -49 100
-71 125 -21 24 -39 46 -39 49 0 2 34 14 76 27 53 15 72 25 63 31 -10 6 -8 9 9
9 12 0 22 -3 22 -7z m-1101 -201 c92 -130 119 -151 221 -173 64 -14 68 -34 4
-25 -62 8 -132 40 -173 79 -31 30 -135 177 -195 277 l-27 45 51 -53 c28 -30
81 -97 119 -150z m309 88 c87 -7 87 -7 21 -9 -73 -1 -155 19 -191 49 -17 14
-10 13 30 -7 38 -19 77 -28 140 -33z m-814 -140 c0 -52 -5 -85 -17 -107 -24
-46 -28 -41 -10 15 15 48 12 147 -6 195 -4 12 -11 36 -14 52 -4 21 2 13 21
-25 21 -45 26 -69 26 -130z m1193 164 c-3 -3 -12 -4 -19 -1 -8 3 -5 6 6 6 11
1 17 -2 13 -5z m272 -29 c36 -42 52 -72 75 -142 15 -45 33 -67 123 -153 72
-68 100 -100 87 -100 -27 0 -68 28 -149 99 -68 61 -94 93 -95 118 0 29 -43
124 -70 158 -27 34 -31 55 -10 55 4 0 22 -16 39 -35z m-232 19 c-3 -3 -12 -4
-19 -1 -8 3 -5 6 6 6 11 1 17 -2 13 -5z m50 -10 c-3 -3 -12 -4 -19 -1 -8 3 -5
6 6 6 11 1 17 -2 13 -5z m-597 -75 c38 -20 60 -24 137 -24 50 0 86 -3 80 -7
-7 -4 -45 -8 -86 -8 -61 0 -84 5 -135 29 -34 17 -73 42 -86 57 l-25 27 35 -25
c19 -14 55 -36 80 -49z m185 26 c6 -2 -19 -4 -55 -4 -36 0 -71 3 -79 8 -13 8
109 4 134 -4z m-175 -136 c18 -10 62 -14 155 -13 140 2 236 16 260 40 13 14
15 12 15 -16 0 -48 -27 -54 -251 -55 -216 0 -209 -2 -261 69 -43 60 -35 77 15
29 23 -22 53 -47 67 -54z m-900 -43 c0 -11 -16 -59 -35 -106 -40 -96 -41 -105
-19 -160 14 -35 15 -47 4 -85 -7 -25 -18 -45 -24 -45 -6 0 -33 8 -59 17 -40
14 -51 15 -69 4 -20 -12 -20 -11 -13 26 12 61 23 148 20 151 -2 2 -12 -1 -24
-7 -14 -8 -22 -25 -26 -59 -10 -75 -28 -127 -47 -130 -9 -2 -30 11 -48 28 -29
28 -31 35 -28 88 3 56 3 57 38 63 76 14 115 43 205 157 32 40 64 76 73 81 24
13 52 1 52 -23z m1617 -13 c-3 -10 -5 -4 -5 12 0 17 2 24 5 18 2 -7 2 -21 0
-30z m-1545 -9 c-10 -92 -96 -394 -112 -394 -5 0 -3 17 4 38 7 20 30 117 52
215 22 99 43 176 49 174 5 -2 9 -17 7 -33z m1258 -19 c0 -8 -10 -19 -21 -26
-26 -14 -160 -38 -211 -39 -36 0 -37 1 -27 24 10 21 20 24 87 30 43 3 91 10
107 15 45 14 65 13 65 -4z m408 -67 c-8 -24 -55 -50 -84 -45 l-29 4 33 8 c19
4 39 16 45 26 13 21 41 26 35 7z m93 -84 c9 -25 13 -26 57 -21 l48 6 26 -72
c38 -103 38 -107 -1 -134 -19 -13 -39 -22 -44 -20 -19 6 -117 202 -111 222 4
16 3 17 -5 5 -9 -13 -11 -13 -11 1 0 13 18 39 27 39 2 0 8 -12 14 -26z m-1729
-86 c20 -40 42 -101 49 -136 16 -83 43 -123 94 -138 37 -10 40 -13 37 -43 -4
-34 20 -71 45 -71 22 0 6 -18 -34 -37 -94 -44 -164 -272 -117 -381 9 -20 16
-59 15 -85 -4 -106 60 -217 125 -217 19 0 34 -2 34 -5 0 -3 -9 -24 -21 -46
l-20 -40 -37 27 c-88 65 -126 100 -145 131 -11 19 -32 40 -48 49 -29 15 -29
15 -13 46 13 25 15 47 10 97 -3 37 -13 152 -21 258 -15 198 -22 240 -56 355
-17 60 -18 71 -6 95 8 16 25 70 38 121 13 50 26 92 29 92 3 0 22 -33 42 -72z
m1692 1 c16 -30 46 -82 67 -116 37 -61 38 -63 17 -74 -12 -6 -38 -8 -64 -4
-45 6 -65 25 -109 100 -12 21 -3 14 28 -20 26 -27 46 -46 47 -41 0 5 -20 50
-44 101 l-43 92 26 10 c38 15 43 12 75 -48z m-304 0 c0 -28 -34 -78 -61 -89
-16 -7 -32 -10 -35 -7 -13 12 18 88 39 97 31 12 57 12 57 -1z m104 -6 c3 -8
44 -72 91 -144 54 -83 85 -140 85 -157 0 -37 32 -98 65 -123 14 -12 25 -23 23
-25 -2 -2 -45 10 -97 26 -108 34 -237 56 -274 46 -33 -8 -86 -53 -97 -82 -7
-16 -20 -25 -47 -30 -21 -4 -51 -13 -66 -21 -52 -26 -71 16 -44 102 19 63 43
91 129 151 91 63 126 112 152 207 16 60 19 64 46 64 16 0 32 -7 34 -14z
m-1086 -120 c-30 -32 -135 -83 -170 -83 -27 0 -28 1 -28 54 0 54 0 54 44 75
24 12 51 30 61 41 17 19 18 18 66 -23 l48 -41 -21 -23z m152 77 c0 -50 61 -65
76 -18 3 11 8 18 10 15 3 -2 0 -16 -5 -31 -12 -31 -54 -35 -101 -11 -34 18
-36 22 -14 53 21 30 34 28 34 -8z m-420 -99 c0 -15 9 -44 19 -64 l19 -38 -21
7 c-36 11 -54 33 -66 79 -16 63 -15 65 19 54 23 -9 30 -17 30 -38z m1213 8
c-22 -38 -102 -101 -164 -128 -70 -31 -222 -54 -306 -47 -72 7 -73 7 -138 -35
-71 -45 -76 -44 -115 11 l-20 28 66 66 c67 67 90 78 100 51 4 -8 11 -15 17
-15 6 0 22 -10 35 -22 21 -20 34 -23 110 -22 106 1 243 30 287 60 19 12 54 31
78 42 24 11 48 25 51 31 17 26 15 8 -1 -20z m-767 -24 c33 -5 59 -3 73 5 31
16 36 7 15 -25 -23 -36 -84 -65 -135 -65 -30 0 -56 -9 -92 -32 -38 -24 -61
-32 -97 -32 -57 0 -104 19 -124 49 -15 22 -14 23 22 30 46 8 125 47 171 84
l35 28 40 -18 c23 -10 64 -21 92 -24z m-796 5 c8 -5 12 -12 8 -15 -9 -9 -48 4
-48 16 0 12 21 11 40 -1z m2115 -19 c-9 -28 -73 -71 -105 -71 -21 0 -19 3 16
19 23 10 51 33 64 50 24 35 36 35 25 2z m-2310 13 c72 -28 56 -255 -26 -356
-30 -39 -31 -39 -20 -106 5 -37 13 -89 16 -117 4 -27 9 -53 12 -58 2 -4 28 13
56 39 29 26 70 58 92 72 22 14 52 36 66 49 l26 24 13 -91 c17 -130 6 -154
-108 -242 -47 -37 -88 -66 -89 -64 -2 1 -39 105 -83 229 -44 125 -84 236 -90
248 -10 18 -10 19 9 7 25 -15 44 -6 75 36 18 24 21 42 21 135 0 86 -4 112 -18
134 -22 34 -50 34 -82 2 -14 -13 -25 -21 -25 -17 0 11 62 68 80 75 21 8 56 8
75 1z m84 -20 c11 -14 29 -50 40 -80 24 -63 61 -258 61 -319 0 -39 -3 -44 -50
-74 -27 -17 -68 -48 -91 -67 -50 -42 -52 -41 -69 72 l-12 81 31 43 c62 86 92
264 56 334 -18 35 -18 36 -1 36 8 0 24 -12 35 -26z m131 -36 c18 -6 12 -7 -23
-4 -27 2 -54 9 -60 15 -12 12 32 6 83 -11z m2222 -30 c33 -32 66 -79 84 -118
17 -36 72 -129 123 -207 50 -78 91 -144 91 -147 0 -3 -6 -6 -14 -6 -8 0 -18
-4 -21 -10 -4 -6 9 -10 30 -10 l37 0 -33 58 c-18 31 -79 149 -136 262 -108
217 -103 227 23 39 56 -84 188 -341 209 -407 6 -21 5 -23 -13 -13 -36 19 -102
13 -148 -14 l-43 -25 -92 107 c-51 60 -101 117 -112 128 -39 39 17 -35 95
-126 40 -47 79 -93 86 -101 11 -14 11 -22 -3 -48 l-16 -31 -28 38 c-16 21 -70
83 -122 138 -52 55 -118 138 -148 184 -47 71 -55 91 -59 142 -4 54 -2 60 26
89 60 59 159 27 182 -60 13 -49 -1 -87 -37 -101 -22 -8 -32 -6 -52 9 -14 10
-27 25 -29 33 -4 10 0 9 15 -3 46 -42 101 -9 88 53 -14 61 -105 82 -144 33
-46 -58 -8 -160 74 -198 64 -31 143 3 172 72 14 34 13 38 -21 107 -25 51 -54
90 -97 129 -46 43 -55 56 -40 56 11 0 44 -24 73 -52z m-277 -28 c8 -13 -7 -70
-16 -64 -5 3 -9 17 -9 31 0 15 -10 33 -25 45 -14 11 -25 23 -25 28 0 10 66
-26 75 -40z m-2231 -59 c-1 -100 -27 -151 -69 -135 -22 9 -18 24 5 24 36 0 52
41 48 124 -2 50 0 72 7 65 6 -6 10 -41 9 -78z m321 67 c7 -7 -4 -8 -35 -3 -25
4 -49 12 -55 17 -7 7 4 8 35 4 25 -4 50 -12 55 -18z m-359 -67 c-6 -45 -31
-85 -47 -75 -17 10 -10 116 8 136 17 19 18 19 31 1 9 -12 12 -32 8 -62z m372
20 c3 -10 -3 -12 -29 -6 -51 11 -61 27 -15 23 22 -2 41 -9 44 -17z m71 -241
c6 -85 13 -182 17 -216 l5 -61 -38 -6 c-21 -3 -49 -9 -62 -13 -22 -6 -22 -5
-11 16 7 13 12 42 12 64 -1 37 -42 315 -58 394 -6 30 -5 32 23 32 16 0 38 -7
49 -15 29 -22 32 -19 28 28 -3 40 -3 39 11 -13 8 -30 19 -125 24 -210z m1181
145 c-10 -31 -15 -34 -63 -40 -29 -3 -79 -7 -112 -8 l-60 -2 -3 41 -3 41 94
12 c52 7 108 16 123 20 35 9 42 -10 24 -64z m-706 4 c19 -16 49 -58 66 -91 25
-50 30 -73 30 -129 0 -94 -16 -162 -46 -190 -31 -29 -30 -36 6 -119 36 -83 39
-158 10 -251 -42 -135 -83 -163 -118 -81 -25 58 -62 178 -62 201 0 9 26 67 57
129 l58 113 -1 112 c-1 90 -5 123 -23 169 -23 59 -77 118 -109 118 -13 1 -11
6 11 25 39 34 78 32 121 -6z m220 -36 c48 -17 90 -39 108 -56 16 -16 27 -31
26 -33 -4 -4 -91 22 -153 47 l-50 19 21 -20 c11 -11 61 -32 112 -47 138 -39
162 -74 162 -238 0 -49 2 -86 5 -83 3 3 6 50 6 105 1 108 -17 170 -64 222
l-22 24 24 -16 c14 -9 36 -42 50 -74 21 -49 25 -77 29 -188 2 -80 0 -146 -7
-172 -11 -41 -13 -43 -80 -63 -86 -25 -179 -27 -188 -3 -4 9 1 64 10 122 17
107 21 245 8 291 -4 14 -7 -24 -7 -85 0 -68 -7 -149 -18 -210 -18 -93 -20 -98
-28 -66 -6 22 -5 57 1 96 6 34 11 109 11 166 0 94 -3 110 -29 165 -16 34 -34
65 -40 68 -5 4 -20 21 -32 38 l-23 31 45 -7 c24 -3 80 -18 123 -33z m855 21
c36 -26 99 -131 121 -202 30 -96 25 -192 -11 -192 -3 0 -9 37 -11 83 -9 150
-74 269 -163 298 -35 12 -44 18 -29 22 39 10 70 7 93 -9z m184 -35 c84 -25
162 -58 154 -65 -3 -3 -41 6 -84 19 -83 27 -174 45 -138 28 11 -5 59 -21 106
-35 47 -14 98 -35 112 -46 51 -41 84 -185 57 -255 -11 -28 -54 -51 -119 -61
l-41 -7 0 60 c0 74 -16 161 -42 231 -27 72 -32 62 -6 -13 20 -61 39 -203 31
-235 -3 -10 -16 -23 -30 -29 -23 -10 -25 -10 -18 6 27 70 12 188 -36 290 -17
35 -30 66 -31 70 -1 5 -6 13 -12 18 -6 6 -22 22 -35 37 l-23 26 44 -9 c23 -6
74 -19 111 -30z m-1363 -9 c11 -6 25 -20 31 -32 11 -20 10 -20 -12 -4 -38 26
-74 20 -113 -19 -44 -44 -60 -100 -51 -182 4 -41 3 -63 -4 -63 -31 0 -41 104
-17 173 37 102 109 157 166 127z m543 3 c-7 -2 -19 -2 -25 0 -7 3 -2 5 12 5
14 0 19 -2 13 -5z m242 -20 c-9 -37 -16 -40 -113 -49 -88 -7 -101 -2 -102 39
0 14 10 17 63 18 34 0 80 4 102 8 22 5 44 9 49 10 4 0 5 -11 1 -26z m324 -17
c32 -17 76 -72 95 -119 20 -48 29 -107 16 -107 -5 0 -10 15 -11 33 -1 72 -75
187 -120 187 -11 0 -19 5 -19 10 0 13 6 13 39 -4z m-349 -51 c0 -35 -171 -48
-178 -13 -3 15 8 18 75 21 43 1 84 4 91 5 6 1 12 -5 12 -13z m37 -17 c-3 -7
-5 -2 -5 12 0 14 2 19 5 13 2 -7 2 -19 0 -25z m-1290 -10 c-3 -7 -5 -2 -5 12
0 14 2 19 5 13 2 -7 2 -19 0 -25z m1558 -9 c69 -64 89 -157 53 -252 -13 -34
-36 -47 -81 -47 -19 0 -59 -14 -92 -32 -48 -26 -71 -32 -123 -32 -44 -1 -66 3
-69 12 -3 8 6 12 26 12 20 0 34 7 41 20 6 12 21 20 36 20 74 0 114 63 114 181
0 76 -15 117 -52 143 -21 15 -19 16 40 16 59 0 65 -2 107 -41z m-1088 -1 c31
-35 42 -61 48 -119 8 -69 -12 -136 -47 -162 -24 -18 -29 -18 -45 -6 -16 13
-17 12 -4 -4 7 -9 16 -49 19 -87 4 -67 4 -70 -21 -81 -37 -17 -55 -6 -80 48
-30 67 -30 164 -1 194 l21 21 22 -31 c22 -30 52 -39 78 -23 34 22 43 117 17
182 -21 52 -47 67 -80 45 -30 -19 -31 -9 -2 22 27 29 49 29 75 1z m813 -7 c0
-13 -56 -33 -77 -28 -13 3 -11 5 8 6 14 0 34 8 45 16 23 17 24 18 24 6z m36
-95 c-17 -71 -55 -154 -80 -175 -8 -7 -39 -16 -69 -20 l-55 -7 -5 95 c-2 53
-8 104 -12 114 -6 15 0 17 56 17 79 0 130 14 155 41 25 28 28 13 10 -65z
m-173 57 c-13 -2 -33 -2 -45 0 -13 2 -3 4 22 4 25 0 35 -2 23 -4z m-746 -90
c-3 -10 -5 -4 -5 12 0 17 2 24 5 18 2 -7 2 -21 0 -30z m970 -45 c-3 -8 -6 -5
-6 6 -1 11 2 17 5 13 3 -3 4 -12 1 -19z m890 -110 c88 -85 143 -145 151 -167
12 -34 12 -34 -8 -16 -12 10 -18 25 -16 32 4 11 1 11 -15 3 -30 -17 -41 -58
-35 -130 4 -36 7 -76 7 -90 0 -27 27 -107 42 -127 14 -19 35 -16 47 8 6 11 13
61 14 110 2 49 7 94 13 100 8 8 20 6 42 -5 44 -23 55 -49 39 -92 -11 -32 -11
-37 5 -49 35 -25 13 -93 -40 -126 l-33 -21 -40 21 c-35 18 -41 19 -46 6 -4 -8
1 -26 10 -40 l16 -25 -35 0 c-19 0 -35 -4 -35 -8 0 -5 19 -6 43 -2 47 7 67 4
67 -11 0 -5 -24 -9 -54 -9 l-54 0 -130 119 c-72 66 -140 124 -152 131 -15 8
-19 17 -15 31 4 12 -2 34 -14 55 l-21 36 45 60 c24 33 50 78 56 101 11 40 7
135 -7 205 -4 20 -2 32 4 32 6 0 73 -60 149 -132z m-1836 105 c13 -16 12 -17
-3 -4 -10 7 -18 15 -18 17 0 8 8 3 21 -13z m1676 -148 c-5 -52 -33 -122 -44
-111 -3 3 2 17 11 30 9 14 16 27 16 30 0 2 -23 -4 -50 -15 -78 -30 -103 -26
-144 23 -34 40 -44 67 -29 81 3 4 15 0 25 -10 16 -14 25 -15 71 -4 28 6 70 22
92 34 50 29 60 18 52 -58z m-295 37 c19 -21 45 -57 58 -79 34 -62 74 -75 149
-48 22 8 41 13 41 11 0 -10 -53 -96 -65 -106 -12 -10 -175 -70 -189 -70 -1 0
4 27 12 59 10 40 12 73 6 98 -7 36 -8 35 -15 -32 -7 -69 -49 -185 -67 -185 -6
0 -13 12 -17 28 -3 15 -22 61 -41 103 -39 87 -44 133 -15 149 11 5 34 32 52
60 18 27 38 50 45 50 6 0 27 -17 46 -38z m783 18 c3 -5 -3 -10 -14 -10 -38 0
-116 -31 -138 -55 -15 -18 -23 -20 -26 -11 -17 42 154 115 178 76z m-1880 -46
c13 -14 32 -49 41 -77 26 -80 36 -87 118 -87 39 1 89 8 111 16 78 30 77 35 33
-79 l-41 -104 -52 -2 c-28 0 -75 -5 -105 -11 -71 -14 -70 -14 -60 20 5 17 5
30 0 30 -5 0 -11 -13 -15 -28 -3 -16 -30 -53 -60 -82 -60 -59 -68 -60 -31 -2
40 61 60 146 61 257 0 88 -3 104 -22 132 -13 17 -23 34 -23 37 0 14 23 4 45
-20z m-585 -18 c0 -8 -15 -17 -34 -20 -19 -4 -68 -29 -110 -56 -46 -30 -76
-44 -76 -36 0 16 53 54 140 100 64 34 80 37 80 12z m2522 -26 c22 -58 24 -140
4 -140 -24 0 -62 60 -76 117 -14 61 -8 75 28 71 21 -2 30 -12 44 -48z m-1065
34 c-3 -3 -12 -4 -19 -1 -8 3 -5 6 6 6 11 1 17 -2 13 -5z m-102 -39 c-48 -17
-65 -33 -86 -81 -10 -22 -32 -58 -50 -80 -62 -78 -85 -149 -70 -216 l9 -38
-119 0 c-113 0 -119 1 -119 20 0 11 -11 38 -25 60 l-25 39 37 100 c32 87 41
101 63 105 116 22 142 29 152 40 7 7 45 18 83 25 39 7 90 23 115 36 33 17 48
20 58 12 10 -8 5 -13 -23 -22z m1025 -19 c0 -67 7 -86 31 -86 17 0 18 2 6 23
-9 15 -11 37 -7 67 4 28 8 35 8 18 1 -15 7 -39 13 -54 21 -57 -17 -100 -52
-57 -15 17 -20 143 -6 143 4 0 7 -24 7 -54z m-1280 14 c9 -17 7 -22 -12 -29
-39 -14 -128 -24 -128 -13 0 5 21 12 47 15 33 3 52 11 62 26 17 26 18 26 31 1z
m358 -66 c24 -26 53 -65 63 -88 18 -40 24 -119 13 -163 -5 -20 -9 -21 -28 -11
-11 6 -50 14 -86 17 -62 6 -65 7 -94 49 -24 34 -31 55 -34 107 -4 63 -3 66 31
100 49 49 79 47 135 -11z m-1410 10 c12 -8 22 -20 22 -26 0 -20 -83 -109 -121
-128 -47 -24 -86 -25 -139 -4 -48 19 -50 42 -5 62 17 8 56 29 87 48 117 71
122 72 156 48z m2516 -50 c3 -8 2 -12 -4 -9 -6 3 -10 10 -10 16 0 14 7 11 14
-7z m-259 -74 c-4 -14 -13 -36 -22 -49 -15 -23 -16 -24 -29 -6 -14 19 -19 116
-7 128 4 4 20 -5 35 -20 22 -21 28 -33 23 -53z m-2220 4 c-14 -21 -19 -23 -32
-13 -13 12 -12 16 13 37 33 29 44 14 19 -24z m2511 -16 c9 -29 19 -59 22 -65
2 -7 -2 -13 -9 -13 -8 0 -27 23 -43 52 -28 49 -28 52 -11 65 11 7 20 13 21 13
1 0 10 -24 20 -52z m-2409 5 c32 -25 47 -60 37 -87 -20 -53 -114 42 -100 100
7 27 10 26 63 -13z m2354 -18 c7 -13 3 -12 -10 5 -11 14 -21 30 -21 35 0 11
14 -7 31 -40z m-18 -82 c-7 -17 -8 -17 -11 2 -3 11 -22 39 -43 62 -57 62 -47
67 11 6 37 -38 48 -56 43 -70z m-2464 54 c14 -36 33 -214 26 -238 -5 -16 -78
-59 -100 -59 -2 0 -6 48 -9 108 -4 59 -9 124 -11 144 -5 33 -2 39 22 52 40 22
62 19 72 -7z m1825 -9 c14 -23 9 -26 -54 -38 -66 -13 -153 -51 -202 -90 -60
-48 -53 -17 10 42 78 75 145 109 206 105 16 -1 34 -10 40 -19z m686 -8 c6 -11
8 -20 6 -20 -3 0 -10 9 -16 20 -6 11 -8 20 -6 20 3 0 10 -9 16 -20z m-2678 -6
l58 6 0 -79 c0 -43 3 -106 6 -140 6 -49 4 -61 -7 -61 -35 1 -42 19 -53 134 -8
83 -14 113 -23 108 -8 -5 -9 -35 -3 -115 5 -59 12 -112 15 -117 9 -15 -41 -12
-52 3 -6 6 -16 55 -22 107 -7 52 -15 112 -18 134 -6 38 -5 38 17 26 15 -8 43
-10 82 -6z m1354 -63 c-1 -72 -10 -96 -26 -71 -15 24 -12 93 6 118 8 12 16 22
18 22 1 0 2 -31 2 -69z m1039 29 c3 -5 -1 -10 -10 -10 -9 0 -13 5 -10 10 3 6
8 10 10 10 2 0 7 -4 10 -10z m-2103 -47 c16 -17 14 -21 -27 -68 l-44 -50 -1
83 0 83 28 -15 c15 -8 35 -22 44 -33z m112 -32 c30 -42 35 -56 24 -62 -21 -14
-30 -10 -24 9 4 11 -7 31 -30 56 -22 24 -33 44 -29 54 7 18 8 16 59 -57z
m1996 13 c0 -41 -16 -38 -22 6 -3 20 0 30 9 30 8 0 13 -13 13 -36z m330 -4 c0
-31 -3 -38 -15 -34 -9 4 -15 19 -15 40 0 24 5 34 15 34 11 0 15 -11 15 -40z
m-694 23 c-11 -11 -138 -55 -158 -55 -10 1 -18 -2 -18 -4 0 -3 37 -51 83 -107
86 -105 127 -161 127 -171 0 -18 -27 4 -111 90 -92 93 -139 129 -161 122 -6
-2 9 -16 33 -30 24 -15 80 -63 124 -108 74 -74 78 -80 50 -76 -228 38 -299 52
-312 61 -14 10 -13 17 6 61 47 105 116 170 221 207 46 16 129 23 116 10z
m-443 -14 c45 -24 105 -79 111 -104 5 -18 -3 -41 -25 -80 -17 -30 -35 -55 -40
-55 -14 0 -191 50 -206 58 -9 5 -6 25 12 77 33 99 86 136 148 104z m-599 -5
c9 -4 16 -18 16 -33 0 -26 -3 -28 -77 -40 -128 -22 -245 -75 -327 -150 l-29
-26 24 44 c58 105 140 165 259 190 116 23 113 23 134 15z m1676 -20 c0 -8 -4
-14 -10 -14 -5 0 -10 9 -10 21 0 11 5 17 10 14 6 -3 10 -13 10 -21z m-480 -84
c71 -67 99 -99 86 -100 -10 0 -59 -14 -109 -30 -49 -17 -94 -29 -98 -28 -10 4
-179 201 -179 209 0 9 131 48 165 48 25 1 49 -17 135 -99z m-1635 56 c40 -40
41 -69 6 -170 -48 -137 -50 -132 44 -183 127 -68 124 -46 -4 26 -34 19 -57 39
-55 46 11 28 218 163 227 148 31 -51 137 -246 135 -248 -2 -1 -27 -14 -55 -27
l-53 -25 -24 41 c-13 23 -43 66 -66 96 l-41 55 38 32 c20 17 35 34 32 37 -7 8
-89 -51 -89 -63 0 -6 27 -47 60 -93 33 -46 60 -89 60 -95 0 -31 -108 0 -207
60 -63 37 -63 40 -33 189 19 93 19 145 0 133 -4 -3 -11 -22 -15 -42 l-7 -38
-15 58 c-12 45 -12 61 -3 72 18 21 37 18 65 -9z m831 -24 c-22 -5 -30 3 -21
18 5 8 11 7 22 -2 15 -12 14 -13 -1 -16z m1230 -17 c-21 -32 -41 -34 -25 -2 6
12 17 28 22 36 19 23 21 -7 3 -34z m104 5 c0 -23 -29 -84 -36 -77 -3 2 0 25 7
51 12 47 29 62 29 26z m-2237 -52 c9 -27 14 -48 12 -48 -10 0 -45 82 -39 91 8
13 8 13 27 -43z m558 -30 c24 -47 63 -149 73 -190 5 -21 3 -28 -8 -28 -10 0
-26 34 -47 100 -18 54 -35 98 -37 95 -2 -2 8 -44 22 -94 14 -49 26 -94 26 -99
0 -13 -130 -46 -140 -36 -17 17 -119 208 -115 215 3 4 37 15 77 24 40 10 80
22 88 26 18 11 -2 8 -108 -17 -65 -15 -96 -14 -80 2 7 7 175 42 205 43 17 1
28 -10 44 -41z m1490 22 c-13 -11 -28 -20 -35 -20 -6 0 0 9 14 20 33 26 52 25
21 0z m-2241 -21 c0 -5 -4 -9 -10 -9 -5 0 -10 7 -10 16 0 8 5 12 10 9 6 -3 10
-10 10 -16z m2350 7 c0 -21 -43 -45 -92 -51 l-43 -6 65 34 c36 19 66 35 68 35
1 1 2 -4 2 -12z m-2401 -67 c-34 -22 -55 5 -24 31 8 7 15 20 16 29 1 9 6 1 12
-17 8 -27 7 -36 -4 -43z m-264 -30 c-6 -9 -11 -7 -22 6 -7 11 -13 26 -13 34 0
12 5 11 21 -6 13 -13 18 -26 14 -34z m70 41 c4 -6 3 -9 -2 -8 -4 1 -19 -4 -33
-11 l-25 -14 19 22 c21 23 32 26 41 11z m370 -12 c32 -1 36 -4 31 -22 -3 -12
-8 -40 -12 -63 -8 -52 -27 -56 -54 -11 -32 52 -38 120 -10 103 5 -3 25 -6 45
-7z m-259 -36 c-16 -16 -18 -16 -32 3 -14 18 -13 20 8 26 33 8 46 -7 24 -29z
m162 -28 c33 -58 38 -74 23 -74 -20 0 -86 104 -76 120 11 18 21 10 53 -46z
m2017 44 c14 -6 25 -14 25 -18 0 -11 -173 -60 -212 -60 -52 0 -50 24 5 44 136
51 142 52 182 34z m-2245 -47 c0 -4 -5 -12 -12 -19 -15 -15 -48 12 -48 39 0
16 2 16 30 3 17 -9 30 -19 30 -23z m100 -11 c0 -13 -7 -20 -19 -20 -27 0 -35
17 -14 29 26 15 33 13 33 -9z m-311 -34 c-2 -2 -31 -6 -64 -9 -38 -4 -53 -3
-40 3 19 8 113 14 104 6z m325 -22 c10 -25 1 -27 -19 -4 -15 17 -16 20 -3 20
9 0 19 -7 22 -16z m176 -25 c0 -5 -4 -9 -10 -9 -5 0 -10 7 -10 16 0 8 5 12 10
9 6 -3 10 -10 10 -16z m-245 -19 c38 -40 11 -40 -35 0 -30 25 -32 29 -14 30
11 0 33 -13 49 -30z m152 5 l28 -24 -26 -1 c-31 0 -65 23 -55 38 11 18 22 15
53 -13z m-440 -11 c-3 -3 -12 -4 -19 -1 -8 3 -5 6 6 6 11 1 17 -2 13 -5z
m1276 -25 c-29 -29 -295 -86 -279 -61 10 17 274 86 285 75 3 -2 0 -8 -6 -14z"/>
<path d="M2466 4394 c-4 -9 -4 -19 -1 -22 2 -3 7 3 11 12 4 9 4 19 1 22 -2 3
-7 -3 -11 -12z"/>
<path d="M2410 4103 c42 -8 175 -117 164 -135 -3 -4 -36 -8 -73 -8 l-68 0 -67
61 c-36 33 -71 59 -77 57 -6 -2 19 -28 55 -58 41 -34 64 -60 61 -69 -5 -12 10
-13 87 -7 50 4 95 9 100 12 14 9 -23 54 -86 105 -45 36 -68 49 -91 48 -27 -2
-28 -2 -5 -6z"/>
<path d="M2348 4093 c6 -2 18 -2 25 0 6 3 1 5 -13 5 -14 0 -19 -2 -12 -5z"/>
<path d="M2420 3920 c0 -5 5 -10 10 -10 6 0 10 5 10 10 0 6 -4 10 -10 10 -5 0
-10 -4 -10 -10z"/>
<path d="M2432 3753 c-20 -17 -154 -337 -167 -400 l-6 -28 16 27 c8 15 41 90
71 165 70 171 89 210 112 222 13 7 42 -1 111 -30 52 -21 96 -37 99 -34 6 6
-153 82 -189 90 -17 4 -32 0 -47 -12z"/>
<path d="M2429 3625 c-28 -64 -42 -153 -28 -186 14 -36 77 -64 122 -55 67 13
125 96 112 162 -6 35 -55 84 -83 84 -31 0 -97 -40 -119 -72 -30 -42 -29 -27 1
50 28 72 24 84 -5 17z m119 -98 c4 -44 -12 -69 -41 -65 -35 5 -43 32 -24 73
13 28 22 36 40 33 18 -2 23 -10 25 -41z"/>
<path d="M2490 3500 c0 -6 7 -10 15 -10 8 0 15 2 15 4 0 2 -7 6 -15 10 -8 3
-15 1 -15 -4z"/>
<path d="M3083 3424 c-45 -22 -88 -110 -80 -160 9 -51 32 -74 77 -74 65 0 130
77 130 154 0 48 -8 65 -41 81 -35 19 -46 18 -86 -1z m55 -86 c2 -29 -1 -39
-18 -48 -42 -23 -65 24 -34 68 24 34 48 24 52 -20z"/>
<path d="M3095 3320 c-3 -5 -2 -10 4 -10 5 0 13 5 16 10 3 6 2 10 -4 10 -5 0
-13 -4 -16 -10z"/>
<path d="M2420 3329 c30 -11 59 -18 65 -16 10 4 -95 38 -112 36 -4 0 17 -9 47
-20z"/>
<path d="M2213 3261 c-1 -10 -9 -36 -18 -57 l-16 -39 -15 28 c-8 15 -19 27
-25 27 -12 0 -31 -49 -23 -61 11 -19 24 -8 18 16 -7 30 6 33 24 5 7 -11 17
-20 22 -20 16 0 54 106 41 114 -4 3 -7 -3 -8 -13z"/>
<path d="M3000 3135 c0 -9 82 -46 92 -43 6 2 -12 14 -40 25 -29 12 -52 20 -52
18z"/>
<path d="M1781 3744 c-12 -15 -21 -32 -21 -38 0 -6 8 1 17 16 29 46 61 47 82
2 15 -34 14 -66 -5 -114 -27 -67 -92 -64 -95 4 0 12 -3 15 -6 8 -3 -7 0 -26 7
-42 34 -83 120 -12 120 100 0 82 -56 119 -99 64z"/>
<path d="M1752 3670 c0 -14 2 -19 5 -12 2 6 2 18 0 25 -3 6 -5 1 -5 -13z"/>
<path d="M1322 3054 c8 -7 111 -34 116 -30 2 2 -18 11 -44 20 -47 16 -82 21
-72 10z"/>
<path d="M1264 2895 c0 -55 1 -76 3 -47 2 29 2 74 0 100 -2 26 -3 2 -3 -53z"/>
<path d="M1195 2950 c3 -5 10 -10 16 -10 5 0 9 5 9 10 0 6 -7 10 -16 10 -8 0
-12 -4 -9 -10z"/>
<path d="M1796 3045 c4 -8 11 -15 16 -15 6 0 5 6 -2 15 -7 8 -14 15 -16 15 -2
0 -1 -7 2 -15z"/>
<path d="M1930 2821 c0 -5 6 -14 14 -20 16 -13 32 2 21 19 -8 12 -35 13 -35 1z"/>
<path d="M2047 2604 c-13 -13 -7 -52 8 -58 27 -10 46 5 43 33 -3 26 -35 41
-51 25z m43 -30 c0 -8 -9 -14 -20 -14 -19 0 -27 19 -14 33 10 9 34 -4 34 -19z"/>
<path d="M2650 2266 c-74 -11 -126 -22 -116 -24 27 -6 245 28 252 39 3 5 4 8
2 8 -2 -1 -64 -11 -138 -23z"/>
<path d="M997 2862 c-21 -23 -37 -67 -37 -103 0 -16 -5 -29 -11 -29 -6 0 -9
-16 -7 -37 3 -34 6 -38 33 -41 51 -5 95 68 95 157 0 64 -38 92 -73 53z m51
-46 c4 -47 -14 -86 -39 -86 -41 0 -48 72 -11 113 25 28 47 17 50 -27z m-34
-116 c28 0 29 0 11 -20 -10 -11 -29 -20 -42 -20 -19 0 -23 5 -23 32 0 25 3 29
12 20 7 -7 25 -12 42 -12z"/>
<path d="M3338 2897 c22 -26 61 -87 86 -135 52 -99 63 -94 14 6 -18 37 -57 91
-86 122 -51 51 -51 52 -14 7z"/>
<path d="M1328 2458 c-22 -33 -24 -94 -3 -101 17 -7 28 39 23 93 l-3 34 -17
-26z"/>
<path d="M2380 2095 c13 -14 26 -25 28 -25 3 0 -5 11 -18 25 -13 14 -26 25
-28 25 -3 0 5 -11 18 -25z"/>
<path d="M2668 2083 c7 -3 16 -2 19 1 4 3 -2 6 -13 5 -11 0 -14 -3 -6 -6z"/>
<path d="M2530 2064 l-85 -13 75 5 c41 2 89 8 105 13 41 13 7 11 -95 -5z"/>
<path d="M2042 2185 c9 -10 21 -16 28 -13 7 2 -1 10 -16 17 -27 12 -28 11 -12
-4z"/>
<path d="M2098 2163 c7 -3 16 -2 19 1 4 3 -2 6 -13 5 -11 0 -14 -3 -6 -6z"/>
<path d="M3850 1793 c0 -13 41 -75 46 -70 3 2 -5 21 -17 41 -21 35 -29 44 -29
29z"/>
<path d="M1460 1587 c0 -9 6 -18 13 -20 9 -4 9 -6 -1 -6 -15 -1 -6 -21 9 -21
15 0 7 53 -8 58 -7 2 -13 -3 -13 -11z"/>
<path d="M2618 1963 c6 -2 18 -2 25 0 6 3 1 5 -13 5 -14 0 -19 -2 -12 -5z"/>
<path d="M2568 1953 c6 -2 18 -2 25 0 6 3 1 5 -13 5 -14 0 -19 -2 -12 -5z"/>
<path d="M2503 1943 c9 -2 23 -2 30 0 6 3 -1 5 -18 5 -16 0 -22 -2 -12 -5z"/>
<path d="M2171 1774 c0 -11 3 -14 6 -6 3 7 2 16 -1 19 -3 4 -6 -2 -5 -13z"/>
<path d="M2264 1425 c-11 -28 4 -45 38 -44 21 1 26 3 13 6 -34 8 -41 22 -19
38 19 14 18 14 -4 15 -12 0 -25 -7 -28 -15z"/>
<path d="M2535 1190 c-3 -5 1 -10 10 -10 9 0 13 5 10 10 -3 6 -8 10 -10 10 -2
0 -7 -4 -10 -10z"/>
<path d="M1649 1171 c7 -12 19 -25 27 -28 26 -10 22 1 -9 26 -29 24 -30 24
-18 2z"/>
<path d="M2090 4424 c0 -22 38 -109 45 -103 5 5 -27 105 -37 115 -5 4 -8 -1
-8 -12z"/>
<path d="M1640 4279 c0 -24 30 -79 43 -79 5 0 6 7 3 16 -17 44 15 -7 63 -100
30 -58 57 -104 59 -101 4 3 -106 225 -132 268 -15 24 -36 22 -36 -4z m34 -25
c3 -8 2 -12 -4 -9 -6 3 -10 10 -10 16 0 14 7 11 14 -7z"/>
<path d="M1842 4035 c12 -24 23 -43 26 -41 4 5 -36 86 -43 86 -3 0 5 -20 17
-45z"/>
<path d="M1012 3704 c-53 -37 -11 -124 52 -108 68 17 56 124 -14 124 -9 0 -26
-7 -38 -16z"/>
<path d="M1673 3403 c-21 -7 -15 -33 7 -33 11 0 20 6 20 14 0 18 -11 25 -27
19z"/>
<path d="M1410 3330 c0 -11 7 -23 15 -27 21 -8 28 1 20 26 -8 27 -35 27 -35 1z"/>
<path d="M1440 3190 c0 -5 7 -10 15 -10 8 0 15 5 15 10 0 6 -7 10 -15 10 -8 0
-15 -4 -15 -10z"/>
<path d="M3764 2595 c-4 -9 -2 -21 4 -27 16 -16 47 -5 47 17 0 26 -42 34 -51
10z"/>
<path d="M3688 2415 c-38 -43 -47 -65 -28 -65 6 0 10 4 10 10 0 5 16 27 35 49
19 21 35 41 35 45 0 15 -18 2 -52 -39z"/>
<path d="M4035 2290 c-6 -9 -45 -120 -45 -127 0 -1 4 -3 9 -3 4 0 17 24 29 53
11 28 23 60 27 70 8 18 -9 24 -20 7z"/>
<path d="M923 2274 c-6 -16 15 -37 29 -28 4 3 8 14 8 25 0 23 -28 26 -37 3z"/>
<path d="M847 1752 c-30 -33 -16 -82 23 -82 21 0 50 31 50 53 0 14 -35 47 -51
47 -3 0 -13 -8 -22 -18z"/>
<path d="M740 1266 c0 -18 119 -177 138 -184 24 -8 11 16 -53 101 -69 91 -85
107 -85 83z"/>
<path d="M1178 983 c12 -2 32 -2 45 0 12 2 2 4 -23 4 -25 0 -35 -2 -22 -4z"/>
<path d="M885 930 c-7 -12 31 -12 95 -1 44 8 44 9 -22 10 -37 0 -70 -3 -73 -9z"/>
<path d="M623 853 c9 -2 25 -2 35 0 9 3 1 5 -18 5 -19 0 -27 -2 -17 -5z"/>
<path d="M4295 812 c-48 -11 -35 -27 24 -30 63 -4 108 5 95 18 -13 13 -84 20
-119 12z"/>
<path d="M505 790 c-4 -6 13 -10 45 -10 32 0 49 4 45 10 -3 6 -24 10 -45 10
-21 0 -42 -4 -45 -10z"/>
<path d="M2700 699 c0 -5 5 -7 10 -4 6 3 10 8 10 11 0 2 -4 4 -10 4 -5 0 -10
-5 -10 -11z"/>
<path d="M4170 700 c-18 -5 2 -8 65 -9 50 -1 122 -3 160 -6 45 -4 63 -2 50 3
-28 13 -245 23 -275 12z"/>
<path d="M2588 693 c6 -2 18 -2 25 0 6 3 1 5 -13 5 -14 0 -19 -2 -12 -5z"/>
<path d="M3852 690 c-34 -4 -66 -10 -70 -14 -8 -9 125 2 178 14 l35 8 -40 0
c-22 -1 -68 -4 -103 -8z"/>
<path d="M555 650 c27 -12 35 -12 35 0 0 6 -12 10 -27 9 -25 0 -26 -1 -8 -9z"/>
<path d="M2859 647 c5 -5 19 -7 32 -5 20 3 19 5 -9 9 -20 3 -29 2 -23 -4z"/>
<path d="M3060 646 c0 -9 39 -13 51 -5 10 6 4 9 -18 9 -18 0 -33 -2 -33 -4z"/>
<path d="M3707 629 c-46 -18 -26 -34 48 -37 70 -3 99 8 78 29 -16 16 -93 21
-126 8z"/>
<path d="M4040 630 c-18 -6 -8 -8 40 -9 45 0 60 2 50 9 -18 11 -55 11 -90 0z"/>
<path d="M4163 620 c-29 -12 -29 -26 -2 -40 24 -13 89 -5 115 15 17 12 15 14
-21 24 -47 13 -62 13 -92 1z"/>
<path d="M2620 613 c0 -5 36 -8 79 -8 43 0 77 3 74 8 -2 4 -38 7 -79 7 -41 0
-74 -3 -74 -7z"/>
<path d="M3248 603 c12 -2 32 -2 45 0 12 2 2 4 -23 4 -25 0 -35 -2 -22 -4z"/>
<path d="M2818 593 c12 -2 30 -2 40 0 9 3 -1 5 -23 4 -22 0 -30 -2 -17 -4z"/>
<path d="M738 573 c12 -2 30 -2 40 0 9 3 -1 5 -23 4 -22 0 -30 -2 -17 -4z"/>
<path d="M3405 570 c3 -5 11 -10 16 -10 6 0 7 5 4 10 -3 6 -11 10 -16 10 -6 0
-7 -4 -4 -10z"/>
<path d="M2938 543 c18 -2 45 -2 60 0 15 2 0 4 -33 4 -33 0 -45 -2 -27 -4z"/>
<path d="M805 510 c-11 -18 6 -30 43 -30 43 0 68 13 58 29 -9 14 -93 15 -101
1z"/>
<path d="M1133 490 c-55 -23 -14 -40 97 -40 83 0 113 11 92 32 -16 16 -157 22
-189 8z"/>
<path d="M1640 480 c-10 -7 7 -10 58 -10 46 0 71 4 67 10 -8 13 -105 13 -125
0z"/>
<path d="M1885 460 c3 -5 11 -10 16 -10 6 0 7 5 4 10 -3 6 -11 10 -16 10 -6 0
-7 -4 -4 -10z"/>
<path d="M2665 460 c-25 -6 -20 -8 28 -9 37 -1 56 3 52 9 -7 11 -36 11 -80 0z"/>
<path d="M3355 440 c7 -12 72 -12 100 0 14 6 1 9 -43 9 -40 1 -61 -3 -57 -9z"/>
<path d="M2265 416 c-39 -10 -50 -17 -49 -32 0 -18 -6 -19 -88 -16 -58 2 -88
0 -88 -7 0 -11 174 -18 353 -14 94 2 160 18 154 36 -11 34 -194 55 -282 33z"/>
<path d="M1933 393 c15 -2 39 -2 55 0 15 2 2 4 -28 4 -30 0 -43 -2 -27 -4z"/>
<path d="M1553 333 c20 -2 54 -2 75 0 20 2 3 4 -38 4 -41 0 -58 -2 -37 -4z"/>
<path d="M2930 330 c0 -5 5 -10 10 -10 6 0 10 5 10 10 0 6 -4 10 -10 10 -5 0
-10 -4 -10 -10z"/>
</g>
</svg>